<?xml version="1.0" encoding="UTF-8" standalone="no"?>
<!-- Generator: Adobe Illustrator 23.0.5, SVG Export Plug-In . SVG Version: 6.00 Build 0)  -->

<svg
   version="1.1"
   id="Layer_1"
   x="0px"
   y="0px"
   viewBox="0 0 2000 2000"
   style="enable-background:new 0 0 2000 2000;"
   xml:space="preserve"
   xmlns="http://www.w3.org/2000/svg"
   xmlns:svg="http://www.w3.org/2000/svg"><defs
   id="defs83" />
<style
   type="text/css"
   id="style2">
	.st0{fill:#8BC541;}
	.st1{fill:#0071BC;}
</style>
<g
   id="g78">
	<g
   id="g8">
		<path
   class="st0"
   d="M665.66,824.75c-0.36-34.19,2.41-69.66,17.64-100.81c11.11-23.08,32.01-41.57,56.94-48.1    c32.98-8.93,67.86-1.49,98.88,10.92c43.04,17,79.58,46.02,119.06,69.52c46.49,26.73,98.3,47.19,152.45,49.15    c49.53,1.94,99.18-17.83,134.23-52.8c-28.86,20.93-62.17,37.18-98.07,40.44c-48.32,5.17-95.97-10.37-138.82-31.4    c-51.08-25.29-98.02-57.94-144.49-90.75c-38.89-27.17-81.43-52.11-129.17-58.85c-30.41-4.28-63.77,1.52-87.27,22.39    c-26.07,22.28-38.01,56.42-42.79,89.45c-4.37,33.42-4.75,67.25-3.1,100.87C622.65,824.75,644.15,824.89,665.66,824.75z"
   id="path4" />
		<path
   class="st1"
   d="m 1188.01,688.89 c 10.34,-5.58 19.7895,-9.70465 31.79,-15.23 20.0826,-7.27678 40.6536,-8.45683 61.42,-5.94 11.9042,2.8553 23.25,6.94 32.51,15.04 25.65,19.68 34,53.27 37.26,83.89 1.3463,12.6484 0.622,22.34621 -0.3322,33.96022 -0.94,5.06 -1.2978,11.26978 -2.0978,16.34978 -0.19,1.99 -0.58,5.94 -0.77,7.93 14.93,0.03 29.85,0.08 44.78,-0.08 1.36,-7.93 2.63,-15.84 3.82,-23.77 6.63,-48.04 5.72,-101.28 -23.14,-142.47 -20.29,-30.49 -57.94,-46.69 -94.01,-43.98 -36.6,2.4 -70.13,19.32 -102.11,35.93 -31.71,16.23 -59.02,41.68 -94.23,50.48 -32.31,8.1 -65.6,0.08 -96.8,-8.76 30.96,15.78 64.35,29.91 99.57,31.07 37.22,1.21 70,-18.83 102.34,-34.42 z"
   id="path6" />
	</g>
	<g
   id="g14">
		<path
   class="st1"
   d="M1264.36,1124.57c-19.27,58.1-41.38,115.41-68,170.55c-7.27,13.63-12.8,28.75-23.94,39.86    c-4.92,5.45-14.43,3.76-18.38-2.1c-19.43-23.99-24.44-55.37-36.43-83.07c-12.02-29.8-27.97-58.71-51.8-80.72    c-21.2-18.35-50.61-25.51-77.9-18.96c23.41,3.46,46.85,10.39,65.6,25.43c17.22,15.59,29.13,36.02,37.34,57.58    c17.97,43.62,19.96,92.46,41.85,134.62c6.19,11.25,17.25,25.38,31.87,20.48c17.64-7.16,28.11-24.33,38.09-39.58    c42.93-70.38,75.05-146.81,102.88-224.21C1291.81,1124.35,1278.07,1124.44,1264.36,1124.57z"
   id="path10" />
		<path
   class="st0"
   d="M943.84,1189.62c-32.2,21.86-49.78,57.97-64.46,92.77c-5.97,10.86-10.37,26.29-24.02,29.38    c-11.03-2.63-16.92-13.41-23.16-21.86c-34.33-51.83-60.9-108.33-84.81-165.58c-17.66,0.22-35.3,0.14-52.94,0.11    c33.59,69.74,73,136.53,114.63,201.73c11.66,17.41,23.41,35.46,40.16,48.48c6.66,5.2,17.44,8.54,24.24,1.71    c8.9-8.6,11.14-21.51,14.01-33.03c6.83-36.02,15.78-72.34,34.11-104.43c8.74-15.42,20.43-29.13,34.61-39.83    c13.49-9.09,29.27-14.15,45.47-15.31C982.57,1176.9,961.12,1178.83,943.84,1189.62z"
   id="path12" />
	</g>
	<g
   id="g76">
		<g
   id="g38">
			<path
   class="st0"
   d="M319,1003.43V868.71h25.21v134.72H319z"
   id="path16" />
			<path
   class="st0"
   d="M486.63,934.91c0.58,34.06-20.21,68.51-67.36,68.51c-16.55,0-36.37,0-52.93,0V868.71     c16.55,0,36.37,0,52.93,0C465.46,868.71,486.05,901.62,486.63,934.91z M391.56,978.98h27.71c30.6,0,42.73-22.33,42.15-44.27     c-0.58-20.98-12.89-41.96-42.15-41.96h-27.71V978.98z"
   id="path18" />
			<path
   class="st0"
   d="M603.83,1003.43H502.99c0-44.84,0-89.88,0-134.72h100.85v24.63H528.2v30.99h72.94V948H528.2v30.41h75.64     V1003.43z"
   id="path20" />
			<path
   class="st0"
   d="M719.11,978.02h-70.44l-11.55,25.4h-27.52l60.43-134.72h27.71l60.43,134.72h-27.71L719.11,978.02z      M683.89,897l-25.02,57.35h50.04L683.89,897z"
   id="path22" />
			<path
   class="st0"
   d="M797.06,868.71v111.24h69.28v23.48h-94.69V868.71H797.06z"
   id="path24" />
			<path
   class="st0"
   d="M1041.67,934.91c0.58,34.06-20.21,68.51-67.36,68.51c-16.55,0-36.37,0-52.93,0V868.71     c16.55,0,36.37,0,52.93,0C1020.5,868.71,1041.09,901.62,1041.67,934.91z M946.59,978.98h27.71c30.6,0,42.72-22.33,42.15-44.27     c-0.58-20.98-12.9-41.96-42.15-41.96h-27.71V978.98z"
   id="path26" />
			<path
   class="st0"
   d="M1158.87,1003.43h-100.85c0-44.84,0-89.88,0-134.72h100.85v24.63h-75.64v30.99h72.94V948h-72.94v30.41h75.64     V1003.43z"
   id="path28" />
			<path
   class="st0"
   d="M1271.07,868.51h25.4v134.91h-15.78v0.19l-70.82-91.03v90.84h-25.4V868.71h20.59l66.01,83.53V868.51z"
   id="path30" />
			<path
   class="st0"
   d="M1354.6,891.8h-42.73v-23.1c38.88,0,71.79,0,110.85,0v23.1H1380v111.62h-25.4V891.8z"
   id="path32" />
			<path
   class="st0"
   d="M1533.77,978.02h-70.44l-11.55,25.4h-27.52l60.43-134.72h27.71l60.43,134.72h-27.71L1533.77,978.02z      M1498.55,897l-25.02,57.35h50.04L1498.55,897z"
   id="path34" />
			<path
   class="st0"
   d="M1611.72,868.71v111.24H1681v23.48h-94.69V868.71H1611.72z"
   id="path36" />
		</g>
		<g
   id="g74">
			<g
   id="g64">
				<g
   id="g42">
					<path
   class="st1"
   d="M872.46,1082.98c-6.43,6.34-14.75,9.29-23.77,9.29c-23.24,0-33.07-16-33.16-32.26       c-0.09-16.35,10.55-32.98,33.16-32.98c8.49,0,16.53,3.22,22.97,9.56l-7.87,7.6c-4.11-4.02-9.65-5.9-15.1-5.9       c-15.1,0-21.63,11.26-21.54,21.72c0.09,10.37,6.08,21.18,21.54,21.18c5.45,0,11.62-2.23,15.73-6.34L872.46,1082.98z"
   id="path40" />
				</g>
				<g
   id="g46">
					<path
   class="st1"
   d="M907.86,1028.28v51.66h32.17v10.9h-43.97v-62.56H907.86z"
   id="path44" />
				</g>
				<g
   id="g50">
					<path
   class="st1"
   d="M966.31,1090.84v-62.56h11.71v62.56H966.31z"
   id="path48" />
				</g>
				<g
   id="g54">
					<path
   class="st1"
   d="M1048.08,1028.19h11.8v62.65h-7.33v0.09l-32.89-42.27v42.18h-11.8v-62.56h9.56l30.65,38.79V1028.19z"
   id="path52" />
				</g>
				<g
   id="g58">
					<path
   class="st1"
   d="M1088.66,1090.84v-62.56h11.71v62.56H1088.66z"
   id="path56" />
				</g>
				<g
   id="g62">
					<path
   class="st1"
   d="M1184.47,1082.98c-6.43,6.34-14.75,9.29-23.77,9.29c-23.24,0-33.07-16-33.16-32.26       c-0.09-16.35,10.55-32.98,33.16-32.98c8.49,0,16.53,3.22,22.97,9.56l-7.87,7.6c-4.11-4.02-9.65-5.9-15.1-5.9       c-15.1,0-21.63,11.26-21.54,21.72c0.09,10.37,6.08,21.18,21.54,21.18c5.45,0,11.62-2.23,15.73-6.34L1184.47,1082.98z"
   id="path60" />
				</g>
			</g>
			<g
   id="g68">
				<rect
   x="1201.28"
   y="1052.69"
   class="st1"
   width="479.72"
   height="13.92"
   id="rect66" />
			</g>
			<g
   id="g72">
				<rect
   x="319"
   y="1052.69"
   class="st1"
   width="479.35"
   height="13.92"
   id="rect70" />
			</g>
		</g>
	</g>
</g>
</svg>
